<svg xmlns="http://www.w3.org/2000/svg" width="671" height="464" viewBox="0 0 671 464">
  <g id="Placeholder" transform="translate(-309 -489)">
    <rect id="Rectangle_353" data-name="Rectangle 353" width="671" height="464" transform="translate(309 489)" fill="#e1e1e1"/>
    <g id="KAT_LogoWeb-Medium-Positiv-1" transform="translate(314.5 580.5)">
      <path id="Path_70" data-name="Path 70" d="M352.568,62.5H247.5a5,5,0,0,0-5,5V172.568a5,5,0,0,0,5,5H352.568a5,5,0,0,0,5-5V67.5A5,5,0,0,0,352.568,62.5Zm-43.782,95.219-8.915-24.545h-4.513v24.545H269.822V83.973h25.536v26.086h4.4l8.255-26.086h25.316l-11.777,35.662,12.878,38.082Z" transform="translate(0.111)" fill="#646464"/>
      <path id="Path_71" data-name="Path 71" d="M477.571,172.568V67.5a5,5,0,0,0-5-5H367.5a5,5,0,0,0-5,5V172.568a5,5,0,0,0,5,5H472.568A5,5,0,0,0,477.571,172.568Zm-47.464-14.849-2.091-8.475h-16.84l-1.761,8.475h-25.1l16.29-73.745h38.639l16.62,73.745Z" transform="translate(0.185)" fill="#646464"/>
      <path id="Path_72" data-name="Path 72" d="M418.628,103.98l-4.183,25.756h10.9l-3.962-25.756Z" transform="translate(0.217 0.026)" fill="#646464"/>
      <path id="Path_73" data-name="Path 73" d="M592.568,62.5H487.5a5,5,0,0,0-5,5V172.568a5,5,0,0,0,5,5H592.568a5,5,0,0,0,5-5V67.5A5,5,0,0,0,592.568,62.5ZM567.5,104.776H553.189v52.943H527.652V104.776H512.464v-20.8H567.5Z" transform="translate(0.259)" fill="#646464"/>
      <path id="Path_190" data-name="Path 190" d="M10.707,0H44.327A10.707,10.707,0,0,1,55.034,10.707V44.327A10.707,10.707,0,0,1,44.327,55.034H10.707A10.707,10.707,0,0,1,0,44.327V10.707A10.707,10.707,0,0,1,10.707,0Z" transform="translate(62.5 122.537)" fill="#646464"/>
      <path id="Path_192" data-name="Path 192" d="M10.707,0H44.327A10.707,10.707,0,0,1,55.034,10.707V44.327A10.707,10.707,0,0,1,44.327,55.034H10.707A10.707,10.707,0,0,1,0,44.327V10.707A10.707,10.707,0,0,1,10.707,0Z" transform="translate(182.574 122.537)" fill="#646464" opacity="0.999"/>
      <path id="Path_191" data-name="Path 191" d="M10.707,0H44.327A10.707,10.707,0,0,1,55.034,10.707V44.327A10.707,10.707,0,0,1,44.327,55.034H10.707A10.707,10.707,0,0,1,0,44.327V10.707A10.707,10.707,0,0,1,10.707,0Z" transform="translate(122.537 62.5)" fill="#646464"/>
      <path id="Path_74" data-name="Path 74" d="M154.98,140.614a10.6,10.6,0,1,0,10.6,10.6A10.6,10.6,0,0,0,154.98,140.614Zm7.8,6.092a1.751,1.751,0,0,1-.639,2.386l-3.672,2.12,4.184,2.415a1.159,1.159,0,0,1,.423,1.579l-.3.511a1.752,1.752,0,0,1-2.387.639l-3.671-2.12v4.831a1.16,1.16,0,0,1-1.157,1.156h-.59a1.752,1.752,0,0,1-1.747-1.746v-4.241l-4.184,2.415a1.159,1.159,0,0,1-1.579-.423l-.3-.511a1.751,1.751,0,0,1,.639-2.387l3.672-2.119L147.3,148.8a1.16,1.16,0,0,1-.423-1.579l.3-.511a1.752,1.752,0,0,1,2.386-.639l3.671,2.12v-4.831a1.16,1.16,0,0,1,1.157-1.156h.59a1.752,1.752,0,0,1,1.747,1.746v4.241l4.184-2.415a1.16,1.16,0,0,1,1.579.423Z" transform="translate(0.05 0.048)" fill="#646464"/>
      <path id="Path_75" data-name="Path 75" d="M154.975,149.568a1.639,1.639,0,1,0,1.639,1.639A1.639,1.639,0,0,0,154.975,149.568Z" transform="translate(0.056 0.054)" fill="#646464"/>
      <path id="Path_193" data-name="Path 193" d="M0,0H2.853V10.1H0Z" transform="translate(132.436 136.619)" fill="#646464"/>
      <path id="Path_76" data-name="Path 76" d="M177.534,173.531V126.5a4,4,0,0,0-4-4H126.5a4,4,0,0,0-4,4v47.029a4,4,0,0,0,4,4h47.029A4,4,0,0,0,177.534,173.531Zm-22.54-5.284a17.028,17.028,0,0,1-16.884-19.185h-5.7v1.591a.827.827,0,0,1-.824.822h-2.738a.824.824,0,0,1-.823-.822V132.606a.825.825,0,0,1,.822-.822h2.738a.827.827,0,0,1,.824.822V134.2H155a17.024,17.024,0,1,1,0,34.049Z" transform="translate(0.037 0.037)" fill="#646464"/>
      <path id="Path_77" data-name="Path 77" d="M202.364,105.017a5.217,5.217,0,1,0-7.378,0A5.217,5.217,0,0,0,202.364,105.017Z" transform="translate(0.081 0.021)" fill="#646464"/>
      <path id="Path_78" data-name="Path 78" d="M218.247,84.577a1.994,1.994,0,1,0-2.821,0A1.994,1.994,0,0,0,218.247,84.577Z" transform="translate(0.094 0.011)" fill="#646464"/>
      <path id="Path_79" data-name="Path 79" d="M186.5,117.534h47.029a4,4,0,0,0,4-4V66.5a4,4,0,0,0-4-4H186.5a4,4,0,0,0-4,4v47.029A4,4,0,0,0,186.5,117.534Zm30.58-49.33a1.292,1.292,0,0,1,1.822,0l12.935,12.932a1.291,1.291,0,0,1,0,1.821l-2.733,2.732L214.35,70.932Zm-28.832,32.1,9.383-9.381a1.488,1.488,0,0,1,2.1,0l2.643,2.642,8.836-8.833-4.419-4.422a1.29,1.29,0,0,1,0-1.82l5.83-5.83,14.758,14.754-5.831,5.828a1.292,1.292,0,0,1-1.822,0l-4.418-4.417L206.47,97.66l2.642,2.642a1.485,1.485,0,0,1,0,2.094l-9.383,9.381a1.488,1.488,0,0,1-2.1,0l-9.383-9.381a1.486,1.486,0,0,1,0-2.093Z" transform="translate(0.074)" fill="#646464"/>
      <path id="Path_80" data-name="Path 80" d="M96.542,85.762a7.623,7.623,0,1,0,0,10.78A7.623,7.623,0,0,0,96.542,85.762Z" transform="translate(0.013 0.013)" fill="#646464"/>
      <path id="Path_81" data-name="Path 81" d="M100.991,83.853a1.8,1.8,0,1,0-2.547,0A1.8,1.8,0,0,0,100.991,83.853Z" transform="translate(0.022 0.011)" fill="#646464"/>
      <path id="Path_82" data-name="Path 82" d="M81.306,98.444a1.8,1.8,0,1,0,2.547,0A1.8,1.8,0,0,0,81.306,98.444Z" transform="translate(0.011 0.022)" fill="#646464"/>
      <path id="Path_83" data-name="Path 83" d="M91.148,101.466a1.8,1.8,0,1,0,1.8,1.8A1.8,1.8,0,0,0,91.148,101.466Z" transform="translate(0.017 0.024)" fill="#646464"/>
      <path id="Path_84" data-name="Path 84" d="M98.444,98.444a1.8,1.8,0,1,0,2.547,0A1.8,1.8,0,0,0,98.444,98.444Z" transform="translate(0.022 0.022)" fill="#646464"/>
      <path id="Path_85" data-name="Path 85" d="M113.531,62.5H66.5a4,4,0,0,0-4,4v47.029a4,4,0,0,0,4,4h47.029a4,4,0,0,0,4-4V66.5A4,4,0,0,0,113.531,62.5ZM77.554,77.554a19.184,19.184,0,0,1,13.608-5.635v8.255A10.987,10.987,0,0,0,80.174,91.167l-8.255,0A19.184,19.184,0,0,1,77.554,77.554Zm25.6,25.6a16.949,16.949,0,0,1-28.87-10.489h7.383V91.17a9.5,9.5,0,0,1,8.478-9.449,24,24,0,0,1,2.518-.051V74.282a16.948,16.948,0,0,1,10.49,28.87Z" fill="#646464"/>
      <path id="Path_86" data-name="Path 86" d="M101.466,91.149a1.8,1.8,0,1,0,1.8-1.8,1.8,1.8,0,0,0-1.8,1.8Z" transform="translate(0.024 0.017)" fill="#646464"/>
      <g id="Group_55" data-name="Group 55" transform="translate(220.718 201.336)">
        <path id="Path_87" data-name="Path 87" d="M226.59,203.712q-3.176,0-3.176,2.226a1.8,1.8,0,0,0,.75,1.639,14.411,14.411,0,0,0,3.314,1.2,8.834,8.834,0,0,1,3.614,1.7,4.1,4.1,0,0,1,1.05,3.115,5.069,5.069,0,0,1-1.538,4.04,6.168,6.168,0,0,1-4.189,1.338,24.9,24.9,0,0,1-4.7-.5l-.9-.175.274-2.226a42.227,42.227,0,0,0,5.154.45q3.1,0,3.1-2.752a1.838,1.838,0,0,0-.7-1.589,10.777,10.777,0,0,0-3.151-1.126,8.563,8.563,0,0,1-3.653-1.688,4.354,4.354,0,0,1-1.2-3.4,4.2,4.2,0,0,1,1.514-3.514,6.624,6.624,0,0,1,4.19-1.189,27.475,27.475,0,0,1,4.553.45l.876.15-.224,2.251Q228.04,203.713,226.59,203.712Z" transform="translate(-220.62 -201.251)" fill="#646464"/>
        <path id="Path_88" data-name="Path 88" d="M235.987,204.038v-2.476h12.508v2.476h-4.828V218.7h-2.8V204.038Z" transform="translate(-220.611 -201.251)" fill="#646464"/>
        <path id="Path_89" data-name="Path 89" d="M250.787,218.7l4.228-17.135h5.528L264.8,218.7h-2.8l-.925-3.677h-6.579l-.926,3.677Zm6.379-14.809-2.126,8.68h5.478l-2.1-8.68Z" transform="translate(-220.602 -201.251)" fill="#646464"/>
        <path id="Path_90" data-name="Path 90" d="M267.062,204.038v-2.476H279.57v2.476h-4.828V218.7h-2.8V204.038Z" transform="translate(-220.592 -201.251)" fill="#646464"/>
        <path id="Path_91" data-name="Path 91" d="M284.362,218.7V201.561h10.807v2.426h-8.031v4.853h6.53v2.4h-6.53v5h8.031V218.7Z" transform="translate(-220.581 -201.251)" fill="#646464"/>
        <path id="Path_92" data-name="Path 92" d="M320.332,216.871q-1.54,2.1-5.415,2.1t-5.429-2.114q-1.551-2.113-1.551-6.641t1.563-6.729q1.564-2.2,5.417-2.2t5.4,2.188q1.551,2.189,1.551,6.742T320.332,216.871Zm-8.667-1.8q.85,1.476,3.252,1.476t3.239-1.451a10.324,10.324,0,0,0,.837-4.866,10.7,10.7,0,0,0-.863-4.965,4.119,4.119,0,0,0-6.441,0,10.5,10.5,0,0,0-.876,4.941,10.259,10.259,0,0,0,.851,4.865Z" transform="translate(-220.566 -201.251)" fill="#646464"/>
        <path id="Path_93" data-name="Path 93" d="M327.586,218.7V201.561h10.632v2.426h-7.855v5.778h6.529v2.427h-6.529v6.5Z" transform="translate(-220.554 -201.251)" fill="#646464"/>
        <path id="Path_94" data-name="Path 94" d="M349.661,204.038v-2.476h12.508v2.476H357.34V218.7h-2.8V204.038Z" transform="translate(-220.541 -201.251)" fill="#646464"/>
        <path id="Path_95" data-name="Path 95" d="M377.141,218.7v-7.4h-7.4v7.4H366.96V201.561h2.777v7.3h7.4v-7.3h2.8V218.7Z" transform="translate(-220.53 -201.251)" fill="#646464"/>
        <path id="Path_96" data-name="Path 96" d="M386.36,218.7V201.561h10.807v2.426h-8.03v4.853h6.529v2.4h-6.529v5h8.03V218.7Z" transform="translate(-220.518 -201.251)" fill="#646464"/>
        <path id="Path_97" data-name="Path 97" d="M416.963,213.368h-3.5V218.7h-2.776V201.561h6.279q5.828,0,5.83,5.753a6.325,6.325,0,0,1-1.464,4.5A5.728,5.728,0,0,1,416.963,213.368Zm-3.5-2.4h3.477q3,0,3-3.652a3.727,3.727,0,0,0-.726-2.551,2.929,2.929,0,0,0-2.276-.8h-3.477Z" transform="translate(-220.503 -201.251)" fill="#646464"/>
        <path id="Path_98" data-name="Path 98" d="M425.884,218.7l4.229-17.135h5.528l4.252,17.135h-2.8l-.925-3.677h-6.58l-.924,3.677Zm6.379-14.809-2.126,8.68h5.479l-2.1-8.68Z" transform="translate(-220.494 -201.251)" fill="#646464"/>
        <path id="Path_99" data-name="Path 99" d="M447.612,212.593v6.1h-2.778V201.561h6.5q5.8,0,5.8,5.453,0,3.653-2.8,4.953l2.828,6.729h-3.052l-2.477-6.1Zm6.679-5.554q0-3.077-2.953-3.077h-3.726v6.229h3.776a2.67,2.67,0,0,0,2.2-.863A3.523,3.523,0,0,0,454.291,207.039Z" transform="translate(-220.482 -201.251)" fill="#646464"/>
        <path id="Path_100" data-name="Path 100" d="M461.035,204.038v-2.476h12.508v2.476h-4.829V218.7h-2.8V204.038Z" transform="translate(-220.472 -201.251)" fill="#646464"/>
        <path id="Path_101" data-name="Path 101" d="M476.409,218.688v-3.6h2.927v3.6Z" transform="translate(-220.463 -201.242)" fill="#646464"/>
      </g>
    </g>
  </g>
</svg>
